<svg version="1.1" xmlns="http://www.w3.org/2000/svg" viewBox="0 0 757 771" width="757" height="771">
  <!-- svg-source:excalidraw -->
  
  <defs>
    <style>
      @font-face {
        font-family: "Virgil";
        src: url("https://excalidraw.com/Virgil.woff2");
      }
      @font-face {
        font-family: "Cascadia";
        src: url("https://excalidraw.com/Cascadia.woff2");
      }
    </style>
  </defs>
  <g transform="translate(10 10) rotate(0 368.5 362)"><path d="M483.8542553141066 18.49644034824712 C508.49577771378046 20.06584622469767, 531.2868876345074 35.609322206887065, 553.0122836576335 47.817739696302795 C574.7376796807596 60.026157185718525, 595.3634577370863 75.0437246371879, 614.2066314528631 91.74694528474151 C633.04980516864 108.45016593229512, 651.1598240680083 127.95161941308906, 666.0713259522947 148.0370635816244 C680.9828278365811 168.12250775015974, 693.2255792246725 189.8912768436031, 703.6756427585813 212.25961029595356 C714.12570629249 234.62794374830403, 723.2143807259769 258.3650665563715, 728.7717071557474 282.2470642957272 C734.329033585518 306.12906203508294, 736.7837086524751 330.94023926947614, 737.0196013372048 355.551596732088 C737.2554940219345 380.16295419469986, 734.8033404446132 405.716153381042, 730.1870632641258 429.91520907139824 C725.5707860836383 454.1142647617545, 718.8703325322481 477.79938710418855, 709.3219382542795 500.7459308742257 C699.773543976311 523.6924746442628, 687.1294338552497 547.1145097991059, 672.8966975963142 567.5944716916212 C658.6639613373787 588.0744335841364, 642.0657038833062 606.5448543824168, 623.9255207006665 623.6257022293171 C605.7853375180268 640.7065500762174, 585.6039508075628 657.0644403927951, 564.0555985004758 670.0795587730231 C542.5072461933887 683.0946771532512, 518.5173943683933 693.5225718254048, 494.63540685814417 701.7164125106851 C470.75341934789503 709.9102531959654, 445.48231147701694 715.7432260312854, 420.76367343898085 719.2426028847049 C396.04503540094476 722.7419797381243, 371.1162981988275 723.9354680814837, 346.3235786299275 722.7126736312016 C321.5308590610275 721.4898791809195, 296.33847507625103 718.4120691387734, 272.0073560255807 711.9058361830125 C247.67623697491038 705.3996032272516, 222.7237781646249 694.947904269613, 200.33686432590565 683.6752758966363 C177.9499504871864 672.4026475236597, 157.1903951335156 659.7775097523173, 137.6858729932653 644.2700659451527 C118.18135085301498 628.7626221379882, 99.35941375401026 609.8990107988486, 83.30973148440376 590.630613053649 C67.26004921479725 571.3622153084493, 52.92551537927213 550.3527717678774, 41.38777937562628 528.6596794739552 C29.850043371980433 506.966587180033, 20.710411898209145 484.1441907748434, 14.083315462528674 460.4720592901161 C7.456219026848203 436.79992780538873, 3.403377551624364 411.4810138219449, 1.6252007615434536 386.6268905655912 C-0.15297602853745684 361.77276730923757, -0.007637588828572461 335.99633983401793, 3.4142547220432107 311.347319751994 C6.836147032914994 286.6982996699701, 13.554828826086085 261.962426927957, 22.156554626774152 238.7327700734478 C30.758280427462218 215.50311321893858, 42.07633524574854 192.83413289898888, 55.024609526171616 171.96937862493877 C67.9728838065947 151.10462435088866, 82.63038413175238 131.46097946599926, 99.84620030931262 113.54424442914711 C117.06201648687286 95.62750939229498, 137.58520188418447 78.6400803208001, 158.3195065915331 64.46896840382595 C179.05381129888173 50.297856486851806, 201.16864552125253 38.01518764504772, 224.25202855340441 28.51757292730224 C247.3354115855563 19.019958209556762, 272.0547148449027 12.32657064920129, 296.8198047844445 7.483280097353088 C321.5848947239863 2.6399895455048847, 347.63423440919405 -0.6509675813411112, 372.842568190655 -0.5421703837869813 C398.050901972116 -0.43337318623285154, 427.3333049368051 4.352383576394308, 448.06980747321023 8.136063282677867 C468.80631000961534 11.919742988961426, 487.3133689899625 17.6674871654524, 497.26158340908574 22.159907853914376 C507.209797828209 26.652328542376353, 509.8876195450052 29.243871501502127, 507.75909398794977 35.090587413449725 M411.27067766738196 2.4674138576194764 C435.5165844222045 -0.587553293200481, 459.466990516118 10.447332305830532, 483.38766186958435 17.982600957500722 C507.3083332230507 25.517869609170912, 532.6746338595591 35.25875542387562, 554.79470578818 47.67902576764061 C576.9147777168008 60.0992961114056, 597.5280333448234 75.57153740411141, 616.1080934413096 92.50422302009065 C634.6881535377959 109.43690863606989, 651.8432074300517 129.52734253271308, 666.2750663670971 149.27513946351604 C680.7069253041425 169.022936394319, 692.4371935401286 188.59242574303738, 702.6992470635821 210.99100460490848 C712.9613005870356 233.38958346677958, 722.2416643343561 259.38480849119105, 727.8473875078176 283.6666126347426 C733.4531106812792 307.94841677829413, 735.8951390182934 332.0191895522507, 736.3335861043513 356.6818294662179 C736.7720331904092 381.3444693801851, 735.3105483128493 407.4649124953549, 730.4780700241647 431.642452118546 C725.6455917354801 455.81999174173706, 717.2159548087375 478.9117589939028, 707.338716372244 501.7470672053645 C697.4614779357505 524.5823754168262, 685.1673665875985 548.1380059117754, 671.2146394052039 568.6543013873159 C657.2619122228093 589.1705968628563, 641.5337630966764 607.8750882959818, 623.6223532778761 624.8448400586071 C605.7109434590758 641.8145918212325, 585.455628333593 657.6633540554385, 563.7461804924023 670.4728119630684 C542.0367326512117 683.2822698706982, 517.27940765634 693.1937731349997, 493.36566623073213 701.7015875043865 C469.4519248051242 710.2094018737732, 444.9713235256934 718.1310584462362, 420.26373193875463 721.519698179389 C395.5561403518159 724.9083379125418, 370.014859085754 723.9144425326142, 345.1201167090997 722.0334259033032 C320.2253743324454 720.1524092739921, 295.29690971961213 716.5332996302043, 270.89527767882885 710.2335984035229 C246.49364563804554 703.9338971768416, 220.9880823260393 695.2758674114112, 198.71032446439983 684.2352185432152 C176.43256660276037 673.1945696750191, 156.42286975098344 659.4504612099068, 137.22873050899213 643.9897051943466 C118.03459126700082 628.5289491787863, 99.4854330915056 610.5797377344518, 83.54548901245198 591.4706824498537 C67.60554493339836 572.3616271652556, 53.50648724602055 551.5697059143712, 41.589066034670395 529.335373486758 C29.671644823320243 507.10104105914496, 18.676315158467833 481.8562513046561, 12.04096174435108 458.06468788417516 C5.405608330234325 434.2731244636942, 2.978253584179593 411.0328921794565, 1.7769455499698665 386.58599296387234 C0.5756375157601401 362.1390937482882, 1.6461267824638717 335.96427977996893, 4.833113539092722 311.38329259067024 C8.020100295721571 286.80230540137154, 12.648090985179513 262.39055853743116, 20.898866089742967 239.10006982808002 C29.14964119430642 215.8095811187289, 40.69823469887544 192.5280889281215, 54.33776416647345 171.64036033456344 C67.97729363407146 150.7526317410054, 85.29610517906673 131.67218956275008, 102.73604289533102 113.77369826673174 C120.17598061159532 95.87520697071339, 138.29314948692408 78.3074696519259, 158.97739046405925 64.24941255845334 C179.66163144119443 50.191355464980795, 203.48391942419127 39.23100173947589, 226.84148875814213 29.425355705896436 C250.199058092093 19.61970967231698, 274.71884155262615 10.193041152636805, 299.1228064677644 5.415536356976588 C323.52677138290267 0.6380315613163718, 354.92905255250554 1.1161993615064318, 373.2652782489715 0.7603269319351398 C391.6015039454375 0.4044545023638477, 402.9461087973645 1.948481546326737, 409.14016064656033 3.280301779548836 C415.33421249575616 4.612122012770935, 410.83431682167713 3.1360784001816926, 410.4295893441466 8.751248331267732" stroke="none" stroke-width="0" fill="#15aabf"></path><path d="M453.6129609659699 9.124618048984189 C478.2486139758244 8.65921698595802, 501.83056289929783 22.861878687233805, 524.6578026384375 33.640230747450005 C547.4850423775772 44.418582807666205, 570.5476836082439 58.86625820941004, 590.5763994008079 73.79473041028137 C610.6051151933718 88.72320261115271, 628.2557459277823 104.75251928892722, 644.8300973938216 123.21106395267802 C661.4044488598608 141.66960861642883, 677.46831679192 163.09373102001743, 690.0225081970439 184.5459983927862 C702.5766996021678 205.99826576555498, 712.5152231126309 228.28346782520748, 720.1552458245651 251.9246681892907 C727.7952685364993 275.56586855337395, 733.451496110082 301.6498434526945, 735.8626444686491 326.39320057728554 C738.2737928272163 351.1365577018766, 737.2762440204134 375.91797934435783, 734.6221359759685 400.3848109368371 C731.9680279315236 424.85164252931634, 727.458802780232 449.6825494856979, 719.9379962019796 473.1941901321612 C712.4171896237272 496.70583077862455, 702.1039503694726 519.8849507121641, 689.4972965064542 541.4546548156171 C676.8906426434357 563.0243589190701, 661.0891387452227 584.2894516816687, 644.2980730238692 602.6124147528793 C627.5070073025156 620.93537782409, 608.8412149408559 636.6193836159848, 588.7509021783326 651.392433242881 C568.6605894158092 666.1654828697772, 546.4212531468908 680.6813829680599, 523.7561964487292 691.2507125142563 C501.09113975056755 701.8200420604527, 477.2538537502932 709.4728685210905, 452.76056198936294 714.8084105200596 C428.26727022843266 720.1439525190287, 402.17153820760626 722.6019783330395, 376.7964458831476 723.2639645080707 C351.42135355868896 723.9259506831019, 325.1123071654744 723.0167420422229, 300.51000804261093 718.7803275702469 C275.90770891974745 714.5439130982709, 252.1423340849829 707.37461728911, 229.18265114596664 697.8454776762148 C206.22296820695038 688.3163380633197, 183.809446918922 675.7179655540393, 162.75191040851337 661.6054898928761 C141.69437389810474 647.4930142317129, 120.49982478246841 630.7888687787363, 102.83743208351484 613.1706237092358 C85.17503938456127 595.5523786397353, 70.1368671552483 576.6511779949088, 56.77755421479196 555.8960194758733 C43.41824127433563 535.1408609568379, 31.560819048549206 511.95545654462893, 22.681554440776836 488.6396725950231 C13.802289833004465 465.3238886454173, 7.260472598902965 440.5168199236474, 3.5019665681577408 416.0013157782384 C-0.25653946258748306 391.4858116328294, -1.2058610539783483 366.2098725615453, 0.13051825630549274 341.546647722569 C1.4668975665893338 316.8834228835927, 4.902794259609607 291.8522956974771, 11.520242429860787 268.0219667443807 C18.137690600111966 244.19163779128428, 28.317224218264833 220.41578750023493, 39.83520727781257 198.56467400399066 C51.35319033736031 176.7135605077464, 64.92650113847272 156.23664305423202, 80.62814078714723 136.91528576691508 C96.32978043582175 117.59392847959815, 114.64060959434312 98.56494374174186, 134.04504516985963 82.63653028008906 C153.44948074537615 66.70811681843627, 174.94553991339671 52.79110225123495, 197.05475424024635 41.344804996998334 C219.163968567096 29.898507742761716, 242.48141027422264 20.688057049411896, 266.70033113095747 13.958746754669335 C290.9192519876923 7.229436459926774, 317.3065368182955 2.673414483953546, 342.3682793806552 0.9689432285429689 C367.43002194301494 -0.7355280268676079, 395.5881098146829 1.5014716297932296, 417.07078650511556 3.7319192222058746 C438.5534631955482 5.96236681461852, 459.8169049622206 10.489392850833687, 471.2643395232511 14.351628783018839 C482.71177408428167 18.213864715203993, 487.4072114810234 21.208482189625283, 485.75539387129896 26.90533481531679 M334.53985547291313 1.2217892364211025 C357.79201506048065 -7.2137474229604095, 386.67209258901994 -1.4243886661786007, 411.7988857145308 1.465805209232201 C436.92567884004166 4.355999084643003, 461.6752166550713 10.800330038260341, 485.3006142259783 18.562952488885912 C508.92601179688523 26.325574939511483, 531.7448509283284 35.90711546138547, 553.5512711399726 48.04153991298563 C575.3576913516168 60.17596436458578, 597.2520150382385 74.83583812989325, 616.1391354958436 91.36949919848684 C635.0262559534486 107.90316026708042, 652.3284207371672 126.90478317285223, 666.8739938856033 147.24350632454718 C681.4195670340395 167.58222947624213, 692.997355317181 190.61614876687213, 703.4125743864604 213.40183810865653 C713.8277934557398 236.18752745044094, 723.7873102827496 259.98320936918856, 729.3653083012796 283.9576423752536 C734.9433063198096 307.93207538131867, 736.8242074386562 332.87521663266284, 736.8805624976403 357.248436145047 C736.9369175566244 381.6216556574311, 734.3989803808236 405.87536017912333, 729.7034386551842 430.19695944955834 C725.0078969295448 454.51855871999334, 718.5083124189132 480.14655767092233, 708.7073121438043 503.178031767657 C698.9063118686954 526.2095058643916, 685.3674680684619 548.2995122586959, 670.8974370045305 568.3858040299664 C656.4274059405991 588.4720958012368, 639.8953363430774 606.757379520427, 621.8871257602156 623.6957823952798 C603.8789151773537 640.6341852701327, 584.1729801660765 657.1115295044932, 562.8481735073593 670.0162212790835 C541.5233668486421 682.9209130536739, 517.3781075299023 692.9632663741395, 493.9382858079126 701.1239330428218 C470.49846408592293 709.2845997115041, 447.1988991032182 715.246962471727, 422.2092431754212 718.9802212911775 C397.2195872476242 722.713480110628, 369.23150068922405 725.0308502245578, 344.0003502411307 723.5234859595249 C318.7691997930374 722.0161216944921, 294.86618029645723 716.7926609083735, 270.8223404868611 709.9360357009805 C246.77850067726493 703.0794104935875, 222.16762933456383 693.6683638490971, 199.73731138355376 682.3837347151668 C177.3069934325437 671.0991055812366, 155.75513528759325 657.6733981221222, 136.24043278080072 642.2282608973989 C116.72573027400819 626.7831236726755, 98.6883586568674 608.8969530172607, 82.64909634279854 589.7129113668268 C66.6098340287297 570.5288697163929, 51.364209774185404 549.1709942031526, 40.00485889638759 527.1240109947956 C28.645508018589773 505.0770277864386, 20.929851302770505 481.21680137076146, 14.492991076011663 457.4310121166845 C8.05613084925282 433.6452228626075, 3.2161697507370475 408.77273492442396, 1.3836975358345285 384.40927547033385 C-0.4487746790679903 360.04581601624375, 0.19519300530713712 335.7077437379418, 3.4981577865965505 311.2502553921438 C6.8011225678859635 286.7927670463458, 12.463917420925972 261.1257294786478, 21.20148622357101 237.66434539554555 C29.939055026216046 214.20296131244328, 42.75589025445007 191.46626998277674, 55.92357060246678 170.48195089353013 C69.09125095048348 149.49763180428351, 82.98071854216747 129.60735826250436, 100.20756831167125 111.75843086006594 C117.43441808117504 93.90950345762754, 138.29049357370187 77.4757284167927, 159.28466921948947 63.38838647889969 C180.27884486527708 49.301044541006675, 203.17098096045427 36.67001861523212, 226.17262218639686 27.23437923270785 C249.17426341233946 17.798739850183587, 279.03380697230955 10.84973894805944, 297.29451657514505 6.7745501837541156 C315.55522617798056 2.699361419448792, 329.4887409305942 2.65402700390527, 335.7368798034098 2.7832466468759094 C341.9850186762254 2.9124662898465488, 334.5572572140829 1.8233763877015576, 334.7833498120387 7.549868041577952" stroke="#000000" stroke-width="1" fill="none"></path></g><g transform="translate(101 109) rotate(0 271.5 263.5)"><path d="M361.0787512450394 15.416212112117137 C382.01825577021305 18.000552497763106, 401.49171773280796 30.712313840497153, 419.4971286869005 41.86675515020886 C437.50253964099306 53.02119645992057, 454.456516529569 67.08590666000346, 469.11121696959486 82.3428599703874 C483.7659174096207 97.59981328077133, 496.6995471546102 115.19655848360759, 507.4253313270557 133.40847501251247 C518.1511154995012 151.62039154141735, 527.6610963718496 171.37844193614146, 533.4659220042681 191.61435914381667 C539.2707476366867 211.85027635149189, 541.7929612994345 233.66564538828578, 542.2542851215671 254.82397825856376 C542.7156089436997 275.98231112884173, 540.668358176106 298.13657762684653, 536.2338649370636 318.5643563654845 C531.7993716980211 338.9921351041225, 524.7093915109413 358.60930536707735, 515.6473256873121 377.3906506903917 C506.5852598636829 396.171996013706, 495.52917583965814 415.00928282035954, 481.8614699952884 431.2524283053706 C468.1937641509187 447.4955737903816, 451.2220373871251 462.39726878374483, 433.6410906210939 474.8495236004581 C416.0601438550627 487.30177841717136, 396.2715525893631 497.978933964106, 376.37578939910117 505.96595720565034 C356.4800262088392 513.9529804471947, 335.41566507416644 519.418717910327, 314.2665114795221 522.7716630497242 C293.1173578848777 526.1246081891214, 270.81059971129145 527.782173355302, 249.48086783123483 526.0836280420338 C228.15113595117822 524.3850827287655, 206.83728543872436 519.0999057696952, 186.2881201991824 512.5803911701149 C165.73895495964044 506.0608765705347, 144.56205939551532 497.88215034656076, 126.185876393983 486.96654044455227 C107.80969339245067 476.05093054254377, 90.8641396535859 462.24921069424636, 76.03102218998848 447.08673175806393 C61.197904726391066 431.9242528218815, 47.909014625049046 414.34591548059035, 37.187171612398515 395.9916668274576 C26.465328599747984 377.63741817432486, 17.979504367401052 357.044428606571, 11.699964114085276 336.9612398392676 C5.420423860769499 316.8780510719642, 0.6748444249023275 296.27567761550966, -0.4900699074961494 275.4925342236371 C-1.6549842398946264 254.70939083176455, 0.48614092275287657 232.99852749413026, 4.7104781196944145 212.26237948803225 C8.934815316635952 191.52623148193425, 15.754061902638645 170.15082940839508, 24.85595327415308 151.075646187049 C33.957844645667514 132.0004629657029, 45.6784743570537 113.92751991863362, 59.32182634878103 97.81128015995563 C72.96517834050836 81.69504040127764, 89.38007195515605 67.06464213673787, 106.71606522451705 54.37820763498104 C124.05205849387805 41.69177313322421, 143.6777047250607 30.141151864918704, 163.337785964947 21.692673149414645 C182.99786720483328 13.244194433910584, 203.57562545318757 7.242678713560357, 224.67655266383483 3.6873353419566683 C245.77747987448208 0.13199197035297994, 268.4523715911298 -1.0035728992507984, 289.9433492288306 0.36061291979251564 C311.43432686653136 1.7247987388358297, 339.94251783812075 8.728171739743336, 353.62241849003965 11.872450256216553 C367.30231914195855 15.016728772689769, 367.46886862692 16.476495621560257, 372.022753140344 19.226284018631816 C376.57663765376793 21.976072415703374, 382.80515827783563 24.345883184582878, 380.9457255705834 28.37118063864591 M372.7408362930891 19.627812418510928 C393.5631369739272 23.048887323550172, 412.8011431380223 36.31818188687098, 430.32053415111216 48.53591270510489 C447.839925164202 60.7536435233388, 464.1956131573379 76.82530396400401, 477.85718237162814 92.9341973279144 C491.5187515859184 109.0430906918248, 502.5340837761558 126.86300915215521, 512.2899494368537 145.18927288856725 C522.0458150975516 163.5155366249793, 531.0860982813224 182.66546058863372, 536.3923763358155 202.8917797463866 C541.6986543903085 223.11809890413946, 544.450155349561 245.39756546773455, 544.1276177638118 266.54718783508446 C543.8050801780627 287.69681020243434, 539.8786435489823 309.3629571632113, 534.4571508213203 329.789513950486 C529.0356580936583 350.21607073776073, 522.0528946358248 370.727388031881, 511.59866139784003 389.1065285587327 C501.14442815985524 407.4856690855844, 486.30600809275694 424.7455425716069, 471.7317513934115 440.0643571115963 C457.1574946940661 455.38317165158566, 441.79411348848527 469.4790832174862, 424.1531212017674 481.0194157986689 C406.5121289150496 492.55974837985156, 386.11971290336794 501.9942470264895, 365.8857976731043 509.3063525986922 C345.6518824428407 516.6184581708948, 324.4135111359117 522.5284916236379, 302.7496298201856 524.8920492318847 C281.0857485044595 527.2556068401315, 257.38353708455367 526.1174749568894, 235.90250977874763 523.4876982481729 C214.4214824729416 520.8579215394565, 193.8422473327708 516.1759425527448, 173.86346598534928 509.11338897958575 C153.88468463792776 502.0508354064267, 133.72357361756403 493.02875597309765, 116.02982169421861 481.1123768092185 C98.3360697708732 469.1959976453394, 82.10245620212359 453.39117353636453, 67.7009544452768 437.61511399631104 C53.29945268843003 421.83905445625754, 39.72926171138878 404.80042302919213, 29.620811153137936 386.4560195688976 C19.51236059488709 368.1116161086031, 12.090625003510173 348.0034170852324, 7.050251095771728 327.548693234544 C2.0098771880332817 307.09396938385555, -0.9932702868436156 284.8079929240456, -0.6214322932927416 263.7276764647671 C-0.2495942997418676 242.64736000548862, 3.7729392186472905 221.40716316058044, 9.281279057076972 201.06679447887294 C14.789618895506653 180.72642579716543, 22.851130311943955 160.18742193288205, 32.42860673728535 141.68546437452207 C42.006083162626744 123.18350681616211, 52.61321349634695 106.03307076685284, 66.74613760912533 90.05504912871314 C80.87906172190371 74.07702749057343, 99.13631213471233 58.13875829876422, 117.22615141395562 45.81733454568385 C135.3159906931989 33.495910792603475, 155.04609142709396 23.34195395263504, 175.28517328458508 16.126506610230877 C195.5242551420762 8.911059267826712, 217.40194945921584 4.985925276566945, 238.66064255890245 2.5246504912588534 C259.91933565858903 0.06337570595076158, 281.61536669364096 -1.1779717309038396, 302.83733188270475 1.3588578983823254 C324.0592970717685 3.8956875276684904, 354.6145858836925 14.95275128003143, 365.9924336932851 17.745628266975842 C377.3702815028777 20.538505253920253, 370.5808929913186 17.00370818526716, 371.10441874026026 18.116119820048795 C371.6279444892019 19.228531454830428, 370.7464985839152 20.16318918685938, 369.13358818693496 24.420098075665635" stroke="none" stroke-width="0" fill="#82c91e"></path><path d="M349.5775581071069 11.257299569103196 C370.33135998532464 12.940587382210552, 389.9232334323971 25.540401266091685, 408.59863294313664 36.05807424344255 C427.27403245387615 46.57574722079341, 446.1021205505338 59.6782908369889, 461.629955171544 74.36333743320839 C477.1577897925542 89.04838402942787, 490.4380394276597 106.32405067957579, 501.76564066919775 124.16835382075945 C513.0932419107357 142.0126569619431, 522.942298915947 161.56003383897914, 529.5955626207722 181.42915628031034 C536.2488263255973 201.29827872164154, 539.9492626905769 222.47192888403976, 541.6852228981481 243.38308846874662 C543.4211831057194 264.2942480534535, 543.5675707562459 286.155651088834, 540.0113238661993 306.8961137885516 C536.4550769761527 327.63657648826916, 529.0830516173042 348.74380067864604, 520.3477415578682 367.825864667052 C511.6124314984321 386.9079286554579, 500.6432441826868 404.773275043325, 487.59946350958285 421.3884977189871 C474.5556828364789 438.0037203946492, 458.88976679066354 454.215170490413, 442.08505751924463 467.5172007210245 C425.2803482478257 480.819230951636, 406.207780492898 492.1550283820719, 386.7712078810694 501.20067910265607 C367.33463526924083 510.2463298232402, 346.5979879054307 517.4457557957927, 325.4656218482731 521.7911050445293 C304.33325579111545 526.136454293266, 281.51248908324936 527.990461141596, 259.97701153812375 527.2727745950756 C238.44153399299813 526.5550880485551, 216.99790169441593 523.3145661178996, 196.2527565775194 517.4849857654066 C175.50761146062285 511.6554054129136, 154.15732388620148 502.7557645939917, 135.50614083674444 492.2952924801175 C116.8549577872874 481.83482036624326, 99.94355449385455 469.269883071906, 84.34565828077717 454.72215308216107 C68.7477620676998 440.17442309241613, 53.629438381852914 422.85362704511857, 41.918763558280176 405.0089125416479 C30.208088734707438 387.1641980381772, 20.967267813737024 367.58807043093293, 14.08160933934073 347.6538660613368 C7.195950864944436 327.7196616917407, 2.3812119848364546 306.3093955143121, 0.6048127119024116 285.4036863240712 C-1.1715865610316314 264.4979771338303, -0.13182587718632988 242.9156655561157, 3.423213701736472 222.21961091989147 C6.978253280659274 201.52355628366723, 13.613398863267037 180.32018011387296, 21.935050185439223 161.2273585067259 C30.25670150761141 142.13453689957882, 40.65771102509774 124.39645550607217, 53.35312163476959 107.66268127700903 C66.04853224444145 90.92890704794588, 81.61695391729825 74.26035616580175, 98.10751384347034 60.82471313234706 C114.59807376964244 47.389070098892354, 132.78451619543577 36.234682317560775, 152.29648119180214 27.048823076280826 C171.80844618816852 17.862963835000876, 193.94496490135828 10.173941519755505, 215.17930382166858 5.709557684667345 C236.4136427419789 1.2451738495791842, 258.2242377051391 -0.5078512682054045, 279.7025147136641 0.2625200657518576 C301.18079172218904 1.0328913997091198, 329.17967032684123 7.576608451584088, 344.04896587281837 10.331785688410918 C358.9182614187955 13.086962925237748, 361.93619843933675 13.616910733188453, 368.91828798952696 16.793583486712834 C375.90037753971717 19.970256240237216, 387.5167839511978 25.122120957820655, 385.94150317395963 29.391822209557205 M296.83563811918356 0.6048788391606195 C317.97953510223726 -1.9648762519112304, 341.17060131682945 7.033111429447175, 361.745670081835 13.960314696379413 C382.3207388468405 20.88751796331165, 402.115860967493 30.498640097297418, 420.28605070921674 42.16809844075405 C438.45624045094047 53.83755678421068, 456.1244027987307 68.63889155398952, 470.7668085321775 83.9770647571192 C485.40921426562426 99.31523796024887, 497.70112772411596 115.96824516392756, 508.1404851098973 134.19713765953205 C518.5798424956787 152.42603015513652, 527.5170099774874 173.24045969601656, 533.4029528468657 193.3504197307461 C539.2888957162439 213.46037976547564, 542.7857558144774 234.12447613364458, 543.4561423261667 254.85689786790937 C544.1265288378561 275.58931960217416, 542.0969959549658 296.90853193837665, 537.425271917002 317.7449501363349 C532.7535478790381 338.5813683342932, 524.7003089895956 360.72170900948913, 515.4257980983839 379.8754070556591 C506.15128720717223 399.02910510182903, 495.7372105296226 416.76103147895776, 481.77820656973205 432.6671384133547 C467.8192026098415 448.5732453477516, 449.42124578805146 463.01190919925926, 431.6717743390408 475.31204866204064 C413.9223028900301 487.612188124822, 395.1693182426773 498.450106802912, 375.2813778756681 506.46797519004303 C355.3934375086589 514.485843577174, 333.690201208356 520.2144843760996, 312.34413213698554 523.4192589848268 C290.9980630656151 526.624033593554, 268.53865012977633 527.2414425654551, 247.20496344744564 525.6966228424067 C225.8712767651149 524.1518031193582, 204.64551859618103 520.8542149828777, 184.34201204300126 514.1503406465363 C164.0385054898215 507.44646631019486, 143.33566591009162 496.80275654584966, 125.38392412836703 485.4733768243581 C107.43218234664245 474.1439971028666, 91.34614859426526 461.25282751042073, 76.63156135265376 446.1740623175872 C61.91697411104227 431.09529712475364, 47.857171834969 413.2258048820454, 37.096400678698075 395.00078566735675 C26.335629522427148 376.7757664526681, 18.047540480858824 356.9935964235813, 12.066934415028186 336.8239470294554 C6.086328349197548 316.65429763532944, 2.1849353418776425 294.9356235189947, 1.2127642837142503 273.982889302601 C0.24059322555085794 253.03015508620726, 2.259330756676443 231.36702816619558, 6.233908066047832 211.10754173109297 C10.20848537541922 190.84805529599035, 16.16537970473606 171.348920034421, 25.06022813994258 152.42597069198536 C33.9550765751491 133.5030213495497, 45.9367668113332 113.99251599350275, 59.602998677286934 97.56984567647896 C73.26923054324067 81.14717535945518, 89.5325305146875 66.76937698917975, 107.05761933566498 53.88994878984266 C124.58270815664247 41.010520590505585, 144.67235651257195 28.839595259403133, 164.75353160315183 20.293276480456484 C184.8347066937317 11.746957701509833, 206.21501846209608 5.908748968357742, 227.54466987914427 2.6120361161627557 C248.87432129619245 -0.6846767360322303, 281.2414635179241 0.5756553768040457, 292.7314401054409 0.512999367286568 C304.22141669295775 0.45034335776909035, 295.7394410768522 1.3142462073653007, 296.48452940424534 2.2361000590578897 C297.2296177316385 3.1579539107504786, 297.3568657547578 1.9890182169937276, 297.20197006979976 6.044122477442102" stroke="#000000" stroke-width="1" fill="none"></path></g><g transform="translate(213 228) rotate(0 160.33611111111122 146.5)"><path d="M221.49536032231856 11.339900598941256 C237.20344070864022 15.06170788572549, 253.02352125611682 26.693275614538756, 265.8037598445194 36.55279834663246 C278.583998432922 46.41232107872616, 289.6669813396654 57.446678752888545, 298.176791852734 70.49703699150345 C306.6866023658026 83.54739523011835, 313.1602252229667 99.86291829095694, 316.86262292293094 114.8549477783219 C320.5650206228952 129.84697726568686, 322.0483592303964 145.4219375569726, 320.3911780525194 160.44921391569318 C318.73399687464246 175.47649027441375, 313.58138228150335 191.0891266176918, 306.9195358556692 205.0186059306453 C300.25768942983507 218.9480852435988, 291.6219645117861 232.45372545923803, 280.42009949751457 244.0260897934142 C269.21823448324307 255.59845412759037, 254.39119159327825 266.8683532287916, 239.7083457700401 274.45279193570235 C225.02549994680194 282.0372306426131, 208.72667196221292 286.5433392117471, 192.32302455808565 289.5327220348787 C175.91937715395838 292.5221048580103, 157.87619447525253 294.2207255051253, 141.2864613452765 292.38908887449213 C124.69672821530048 290.55745224385896, 107.86325824653737 285.0615258446686, 92.78462577822954 278.5429022510795 C77.70599330992171 272.0242786574904, 63.13695887744524 263.39185346462307, 50.814666535429495 253.2773473129576 C38.49237419341375 243.16284116129214, 26.890288096247197 231.3010016329622, 18.85087172613507 217.85586534108666 C10.811455356022938 204.4107290492111, 5.430728849349572 187.7660574301268, 2.5781683147567094 172.60652956170438 C-0.2743922198361539 157.44700169328195, -0.35154400941837594 141.99166684336305, 1.7355085185778876 126.89869813055205 C3.822561046574151 111.80572941774103, 7.951008659439282 95.66540782735973, 15.10048348273429 82.04871728483832 C22.2499583060293 68.4320267423169, 33.01996364802628 56.17101506939519, 44.63235745834794 45.198554875423596 C56.2447512686696 34.226094681452004, 70.06291217494778 23.47258896059518, 84.77484634466428 16.213956121008778 C99.48678051438078 8.955323281422377, 116.2178175503018 4.049155443197838, 132.9039624766469 1.6467578379051986 C149.590107402992 -0.7556397673874407, 169.2855186483868 0.10946121409725151, 184.89171590273492 1.7995704892529432 C200.49791315708302 3.489679764408635, 219.50751313828363 9.37589343898498, 226.54114600273556 11.787413488839348 C233.5747788671875 14.198933538693717, 228.47763195263423 14.004471718754656, 227.09351308944656 16.26869078837916 M114.66902971327329 5.729413359523676 C129.22552326839448 -0.46090044024580834, 147.0973607655771 -0.45867586855485365, 164.05266402557615 0.21953806410624566 C181.0079672855752 0.897751996767345, 200.3878492734363 4.504583102959972, 216.40084927326754 9.798696955490271 C232.41384927309878 15.09281080802057, 247.29319988897737 22.68020842919921, 260.13066402456354 31.984221179288042 C272.9681281601497 41.28823392937687, 284.3313089849309 52.89506397961083, 293.42563408678467 65.62277345602324 C302.51995918863844 78.35048293243565, 310.19369418494216 93.84279295296852, 314.6966146356861 108.35047803776249 C319.19953508643005 122.85816312255645, 321.14580508555105 137.62687298770263, 320.4431567912485 152.668883964787 C319.74050849694595 167.71089494187137, 316.30248956754855 184.3980553625626, 310.480724869871 198.60254390026867 C304.6589601721934 212.80703243797475, 296.2525867639459 226.04581237154443, 285.51256860518305 237.89581519102347 C274.7725504464202 249.74581801050252, 260.0217310995908 261.3980068275448, 246.04061591729396 269.70256081714297 C232.0595007349971 278.00711480674113, 217.8786586058187 283.88217401867803, 201.6258775114019 287.72313912861244 C185.3730964169851 291.56410423854686, 165.50598346922726 293.60565181467507, 148.52392935079308 292.74835147674935 C131.5418752323589 291.8910511388236, 115.06998911818769 288.31992379791154, 99.73355280079686 282.579337101058 C84.39711648340602 276.83875040420446, 69.23409410876025 268.2461389550452, 56.50531144644803 258.3048312956282 C43.77652878413583 248.36352363621128, 32.16629530328603 235.75267774500495, 23.360856826923623 222.93149114455636 C14.555418350561219 210.11030454410778, 7.591494144092147 196.3904552314826, 3.6726805882736073 181.37771169293677 C-0.24613296754493286 166.36496815439094, -1.5648842234734512 148.3059027904871, -0.15202450798761902 132.85502991328133 C1.2608352074982132 117.40415703607556, 5.595285749969226 102.56382313657463, 12.1498388811886 88.67247442970215 C18.704392012407975 74.78112572282967, 27.867951101875626 60.921341619069864, 39.175294279328625 49.50693767204643 C50.482637456781625 38.092533725023, 67.43715552588748 27.652803379389212, 79.99389794590661 20.186050747561566 C92.55064036592574 12.71929811573392, 108.37848509387753 6.430172394324745, 114.51574879944344 4.7064218810805585 C120.65301250500936 2.982671367836372, 115.85658768161028 7.383717726807028, 116.8174801793021 9.843547668096448" stroke="none" stroke-width="0" fill="#fab005"></path><path d="M167.02416820026176 0.8545147188558246 C183.11070162192425 -1.0087755652945372, 201.72331406324764 3.401153196908811, 217.60192259230405 8.739274048091318 C233.48053112136046 14.077394899273823, 249.33401751908556 23.222082265018763, 262.2958193746001 32.88323982595087 C275.2576212301147 42.54439738688297, 286.38799785231294 53.820752703119275, 295.3727337253914 66.70621941368393 C304.3574695984699 79.59168612424858, 311.97271312754765 95.38050000312319, 316.2042346130711 110.19604008933877 C320.43575609859454 125.01158017555434, 321.79978693569115 140.2667169292463, 320.761862638532 155.59945993097736 C319.7239383413729 170.93220293270844, 316.2798678603154 188.11116593093368, 309.9766888301165 202.19249809972527 C303.67350979991755 216.27383026851686, 293.7789200390724 228.61450242096393, 282.94278845733845 240.08745294372693 C272.10665687560453 251.56040346648993, 259.3792568484032 263.0210524896068, 244.95989933971305 271.03020123630324 C230.5405418310229 279.0393499829997, 212.81818334622486 284.55266221866555, 196.42664340519755 288.14234542390557 C180.03510346417025 291.7320286291456, 162.95937908137535 293.75920232275575, 146.61065969354922 292.5683004677435 C130.2619403057231 291.3773986127312, 113.83223526672035 287.08499401600113, 98.33432707824082 280.99693429383177 C82.83641888976129 274.9088745716624, 66.28424856301964 265.9621834572193, 53.62321056267207 256.03994213472726 C40.9621725623245 246.11770081223523, 30.63027730297702 234.42275469223313, 22.368099076155374 221.46348635887955 C14.105920849333726 208.50421802552597, 7.682780281855036 193.2356993517935, 4.0501412017421785 178.28433213460576 C0.4175021216293211 163.33296491741802, -1.1242815645956437 146.92337008706164, 0.5722645954782308 131.75528305575315 C2.2688107555521055 116.58719602444467, 7.518750621180206 101.35648051521761, 14.229418162185425 87.27580994675482 C20.940085703190643 73.19513937829203, 29.538636177110725 58.63603163977955, 40.83626984150955 47.27125964497644 C52.13390350590837 35.906487650173325, 67.3826763893896 26.641760064179483, 82.01522014857838 19.087177977936136 C96.64776390776716 11.53259589169279, 111.0125502710783 4.770238721797915, 128.63153239664223 1.9437671275163666 C146.25051452220617 -0.8827044667651811, 174.73334650429547 0.7938946220000247, 187.72911290196197 2.128348412246851 C200.72487929962847 3.462802202493677, 207.15379211345208 7.511237808054867, 206.6061307826413 9.950489868997323 M143.78612041234177 2.127460681605527 C159.48212123153647 -1.5196340170029763, 179.83181690101048 -0.5323970367804569, 196.07308659138607 2.6805481317649082 C212.31435628176166 5.893493300310274, 226.75132418940316 13.481698187250384, 241.23373855459528 21.405131692877717 C255.7161529197874 29.32856519850505, 271.8835712880437 38.741998095416974, 282.9675727825388 50.221149165528914 C294.0515742770339 61.70030023564085, 301.5362329213235 76.2338424133097, 307.73774752156584 90.28003811354935 C313.93926212180816 104.326233813789, 318.6546756512646 119.26373526298735, 320.17666038399284 134.4983233669668 C321.6986451167211 149.73291147094622, 320.6507645373972 166.563778420276, 316.8696559179351 181.68756673742598 C313.08854729847303 196.81135505457596, 306.58941376424735 212.4669969064119, 297.4900086672203 225.2410532698666 C288.39060357019326 238.0151096333213, 275.2157592028292 248.60938582652236, 262.27322533577285 258.3319049181541 C249.3306914687165 268.0544240097859, 235.3217961589725 277.6118306355007, 219.83480546488227 283.57616781965726 C204.34781477079204 289.5405050038138, 185.9674067219116 293.1970691392983, 169.35128117123145 294.1179280230933 C152.7351556205513 295.03878690688833, 136.0852872725645 293.2033705661653, 120.13805216080128 289.1013211224274 C104.19081704903807 284.9992716786895, 88.01091671279954 277.9669531433377, 73.66787050065219 269.5056313606661 C59.32482428850483 261.04430957799445, 44.4862148293077 250.05831039612008, 34.07977488791714 238.33339042639764 C23.67333494652658 226.6084704566752, 16.68817572856187 213.37225070301554, 11.229230852308831 199.1561115423314 C5.770285976055791 184.93997238164724, 2.3312594660556742 168.5861085375888, 1.3261056303988994 153.03655546229268 C0.3209517947421243 137.48700238699655, 0.8849364562586146 120.5137913888062, 5.19830783836818 105.85879309055468 C9.511679220477745 91.20379479230317, 17.936244117103065 77.89376074367536, 27.20633392305629 65.10656567278362 C36.47642372900952 52.31937060189188, 47.712688976476194 38.65566350081253, 60.81884667408754 29.135622665204266 C73.92500437169889 19.615581829596003, 91.72613054273144 12.606084156266345, 105.84328010872437 7.986320659134037 C119.9604296747173 3.3665571620017305, 138.81246756958004 1.919041983263194, 145.52174407004514 1.417041682410428 C152.23102057051025 0.9150413815576618, 146.0643460392363 2.819268237061673, 146.09893911151505 4.97431885401744" stroke="#000000" stroke-width="1" fill="none"></path></g><g transform="translate(300.08611111111145 348.8624999999995) rotate(0 80.19935897435909 24.82361111111112)"><text x="0" y="35.64722222222225" font-family="Virgil, Segoe UI Emoji" font-size="38.190170940171px" fill="#000000" text-anchor="start" style="white-space: pre;" direction="ltr">DOMAIN</text></g><g transform="translate(459 219.5) rotate(43.33166255170671 66 13)"><text x="0" y="19" font-family="Virgil, Segoe UI Emoji" font-size="20px" fill="#000000" text-anchor="start" style="white-space: pre;" direction="ltr">BUILD-TOOL</text></g><g transform="translate(140 245.5) rotate(308.9667469937993 65 13)"><text x="0" y="19" font-family="Virgil, Segoe UI Emoji" font-size="20px" fill="#000000" text-anchor="start" style="white-space: pre;" direction="ltr">PROOF-TOOL</text></g><g transform="translate(330 560.5) rotate(0 56 13)"><text x="0" y="19" font-family="Virgil, Segoe UI Emoji" font-size="20px" fill="#000000" text-anchor="start" style="white-space: pre;" direction="ltr">DOCU-GEN</text></g><g transform="translate(440 76.5) rotate(31.82744657667312 85 13)"><text x="0" y="19" font-family="Virgil, Segoe UI Emoji" font-size="20px" fill="#000000" text-anchor="start" style="white-space: pre;" direction="ltr">GRADLE-PLUGIN</text></g><g transform="translate(621 328.5) rotate(89.20427644726071 71 13)"><text x="0" y="19" font-family="Virgil, Segoe UI Emoji" font-size="20px" fill="#000000" text-anchor="start" style="white-space: pre;" direction="ltr">CLI-BUILDER</text></g><g transform="translate(-53 230.5) rotate(293.14846298530665 159 13)"><text x="0" y="19" font-family="Virgil, Segoe UI Emoji" font-size="20px" fill="#000000" text-anchor="start" style="white-space: pre;" direction="ltr">VISUAL-STUDIO-CODE-PLUGIN</text></g><g transform="translate(579 750) rotate(0 84 10.5)"><text x="168" y="15" font-family="Virgil, Segoe UI Emoji" font-size="16px" fill="#adb5bd" text-anchor="end" style="white-space: pre;" direction="ltr">Made with Excalidraw</text></g></svg>